<svg width="124" height="66" viewBox="0 0 124 66" fill="currentColor" stroke="currentColor" xmlns="http://www.w3.org/2000/svg">
<path fill-rule="evenodd" clip-rule="evenodd" d="M37.5356 12.2574C34.7337 18.4454 31.4282 26.2708 28.9796 32.542C26.5066 38.8755 23.3353 45.0767 20.7856 49.6899C19.5101 51.9977 18.3887 53.9107 17.5859 55.2473C17.1844 55.9156 16.8625 56.4399 16.6408 56.7976C16.5299 56.9764 16.444 57.1136 16.3857 57.2063C16.3566 57.2526 16.3343 57.2879 16.3193 57.3116L16.3022 57.3386L16.2966 57.3473L16.2963 57.3478C16.2962 57.3479 16.2962 57.348 15.8348 57.0594C15.3735 56.7707 15.3735 56.7707 15.3735 56.7707L15.3787 56.7626L15.3949 56.7369C15.4094 56.7141 15.4311 56.6798 15.4596 56.6344C15.5167 56.5435 15.6014 56.4083 15.7111 56.2315C15.9304 55.8778 16.2496 55.3578 16.6482 54.6942C17.4456 53.3668 18.5603 51.4651 19.8286 49.1705C22.3663 44.5789 25.513 38.4238 27.9619 32.1518C30.4177 25.8621 33.7307 18.0192 36.54 11.8147C37.9442 8.71351 39.2259 6.0142 40.2137 4.12067C40.7062 3.17664 41.133 2.41858 41.47 1.90857C41.6356 1.65805 41.7962 1.44139 41.9457 1.2912C42.0173 1.21927 42.1172 1.13063 42.2411 1.07103C42.3668 1.01049 42.6193 0.93733 42.8721 1.0939L43.1996 1.29675L43.1154 1.67027L42.583 1.55239C43.1154 1.67027 43.1154 1.67014 43.1154 1.67027L43.1152 1.67103L43.072 1.8632C43.0436 1.98956 43.0019 2.17558 42.9484 2.41413C42.8416 2.89123 42.6881 3.57845 42.5014 4.41872C42.1282 6.09931 41.6225 8.39189 41.093 10.8401C40.0322 15.7448 38.8811 21.2489 38.5012 23.7227C37.7353 28.7104 36.0915 40.914 36.8085 50.2506L35.7205 50.3327C34.993 40.8599 36.6567 28.5462 37.4224 23.56C37.8083 21.0468 38.9678 15.5064 40.0261 10.6134C40.5561 8.16276 41.0622 5.86815 41.4357 4.18628C41.4418 4.15895 41.4478 4.13179 41.4538 4.10478C41.3667 4.26747 41.2764 4.43838 41.183 4.61726C40.2091 6.48424 38.937 9.16225 37.5356 12.2574Z" fill="currentColor"/>
<path d="M43.1154 1.67027L43.1996 1.29675L42.8721 1.0939C42.6193 0.93733 42.3668 1.01049 42.2411 1.07103C42.1172 1.13063 42.0173 1.21927 41.9457 1.2912C41.7962 1.44139 41.6356 1.65805 41.47 1.90857C41.133 2.41858 40.7062 3.17664 40.2137 4.12067C39.2259 6.0142 37.9442 8.71351 36.54 11.8147C33.7307 18.0192 30.4177 25.8621 27.9619 32.1518C25.513 38.4238 22.3663 44.5789 19.8286 49.1705C18.5603 51.4651 17.4456 53.3668 16.6482 54.6942C16.2496 55.3578 15.9304 55.8778 15.7111 56.2315C15.6014 56.4083 15.5167 56.5435 15.4596 56.6344C15.4311 56.6798 15.4094 56.7141 15.3949 56.7369L15.3787 56.7626L15.3735 56.7707C15.3735 56.7707 15.3735 56.7707 15.8348 57.0594C16.2962 57.348 16.2962 57.348 16.2963 57.3478L16.2966 57.3473L16.3022 57.3386L16.3193 57.3116C16.3343 57.2879 16.3566 57.2526 16.3857 57.2063C16.444 57.1136 16.5299 56.9764 16.6408 56.7976C16.8625 56.4399 17.1844 55.9156 17.5859 55.2473C18.3887 53.9107 19.5101 51.9977 20.7856 49.6899C23.3353 45.0767 26.5066 38.8755 28.9796 32.542C31.4282 26.2708 34.7337 18.4454 37.5356 12.2574C38.937 9.16225 40.2091 6.48424 41.183 4.61726C41.2764 4.43838 41.3667 4.26747 41.4538 4.10479C41.4478 4.13179 41.4418 4.15895 41.4357 4.18628C41.0622 5.86815 40.5561 8.16276 40.0261 10.6134C38.9678 15.5064 37.8083 21.0468 37.4224 23.56C36.6567 28.5462 34.993 40.8599 35.7205 50.3327L36.8085 50.2506C36.0915 40.914 37.7353 28.7104 38.5012 23.7227C38.8811 21.2489 40.0322 15.7448 41.093 10.8401C41.6225 8.39189 42.1282 6.09931 42.5014 4.41872C42.6881 3.57845 42.8416 2.89123 42.9484 2.41413C43.0019 2.17558 43.0436 1.98956 43.072 1.8632L43.1152 1.67103L43.1154 1.67027ZM43.1154 1.67027L42.583 1.55239C43.1154 1.67027 43.1154 1.67014 43.1154 1.67027Z" stroke="inherit"/>
<path fill-rule="evenodd" clip-rule="evenodd" d="M50.3665 28.0338C49.4014 28.1996 48.2888 28.3907 47.0032 28.6092C41.0214 29.626 30.2483 30.8165 26.5342 30.7937C26.3076 30.7923 26.0654 30.7926 25.8089 30.7929C23.1167 30.796 18.8592 30.8009 14.678 28.894L15.1337 27.9074C19.0858 29.7098 23.1128 29.7081 25.8142 29.7069C26.0686 29.7068 26.3112 29.7067 26.5409 29.7081C30.1579 29.7303 40.856 28.5527 46.819 27.5392C48.0878 27.3236 49.1912 27.134 50.1525 26.9689C52.5481 26.5574 54.0613 26.2975 55.0533 26.1624C56.4248 25.9756 56.9636 25.9952 57.5171 26.3193C57.5938 26.3642 57.7602 26.4858 57.8002 26.7224C57.8399 26.9565 57.7252 27.1239 57.671 27.189C57.5711 27.3091 57.4339 27.3778 57.3775 27.4058C57.2227 27.4826 56.9975 27.5641 56.7513 27.6465C56.4563 27.7453 56.0763 27.8626 55.6546 27.993C55.3626 28.0832 55.0506 28.1796 54.7329 28.2802C53.943 28.5305 53.0912 28.8152 52.3207 29.1254C51.5413 29.4392 50.8838 29.7641 50.4591 30.0846C48.6376 31.4591 47.2403 33.0488 46.5983 34.9884C45.9599 36.9171 46.0426 39.2699 47.3303 42.2278C50.1879 48.7916 52.8443 53.633 56.8299 59.1567L57.4629 60.034L56.3766 60.0157L56.3859 59.473C56.3766 60.0157 56.3767 60.0157 56.3766 60.0157L56.3612 60.0154L56.3132 60.0148C56.2705 60.0142 56.2065 60.0135 56.1219 60.0127C55.9529 60.0113 55.7019 60.0098 55.3756 60.0098C54.723 60.0099 53.7689 60.0159 52.5662 60.04C50.1605 60.0881 46.7607 60.2083 42.7874 60.4964C34.8352 61.0731 24.6103 62.321 15.4647 65L15.1557 63.9587C24.4091 61.2482 34.722 59.9929 42.7079 59.4138C46.7037 59.124 50.1231 59.0031 52.5442 58.9546C53.7241 58.931 54.6672 58.9246 55.3247 58.9243C51.6243 53.6791 49.0614 48.9384 46.3276 42.6587C44.9591 39.5154 44.8205 36.8848 45.5605 34.6493C46.2967 32.4248 47.8775 30.6696 49.7983 29.2201C50.3421 28.8097 51.1098 28.4416 51.9104 28.1193C52.4973 27.883 53.1229 27.6632 53.7266 27.4639C52.8668 27.6044 51.7732 27.7922 50.3665 28.0338ZM56.9147 26.4207C56.9149 26.4208 56.9124 26.4225 56.9063 26.4258C56.9114 26.4224 56.9145 26.4207 56.9147 26.4207Z" fill="inherit"/>
<path d="M56.3766 60.0157L57.4629 60.034L56.8299 59.1567C52.8443 53.633 50.1879 48.7916 47.3303 42.2278C46.0426 39.2699 45.9599 36.9171 46.5983 34.9884C47.2403 33.0488 48.6376 31.4591 50.4591 30.0846C50.8838 29.7641 51.5413 29.4392 52.3207 29.1254C53.0912 28.8152 53.943 28.5305 54.7329 28.2802C55.0506 28.1796 55.3626 28.0832 55.6546 27.993C56.0763 27.8626 56.4563 27.7453 56.7513 27.6465C56.9975 27.5641 57.2227 27.4826 57.3775 27.4058C57.4339 27.3778 57.5711 27.3091 57.671 27.189C57.7251 27.1239 57.8399 26.9565 57.8002 26.7224C57.7602 26.4858 57.5938 26.3642 57.5171 26.3193C56.9636 25.9952 56.4248 25.9756 55.0533 26.1624C54.0613 26.2975 52.5481 26.5574 50.1525 26.9689C49.1912 27.134 48.0878 27.3236 46.819 27.5392C40.856 28.5527 30.1579 29.7303 26.5409 29.7081C26.3112 29.7067 26.0686 29.7068 25.8142 29.7069C23.1128 29.7081 19.0858 29.7098 15.1337 27.9074L14.678 28.894C18.8592 30.8009 23.1167 30.796 25.8089 30.7929C26.0654 30.7926 26.3076 30.7923 26.5342 30.7937C30.2483 30.8165 41.0214 29.626 47.0032 28.6092C48.2888 28.3907 49.4014 28.1996 50.3665 28.0338C51.7732 27.7922 52.8668 27.6044 53.7266 27.4639C53.1229 27.6632 52.4973 27.883 51.9104 28.1193C51.1098 28.4416 50.3421 28.8097 49.7983 29.2201C47.8775 30.6696 46.2967 32.4248 45.5605 34.6493C44.8205 36.8848 44.9591 39.5154 46.3276 42.6587C49.0614 48.9384 51.6243 53.6791 55.3247 58.9243C54.6672 58.9246 53.7241 58.931 52.5442 58.9546C50.1231 59.0031 46.7037 59.124 42.7079 59.4138C34.722 59.9929 24.4091 61.2482 15.1557 63.9587L15.4647 65C24.6103 62.321 34.8352 61.0731 42.7874 60.4964C46.7607 60.2083 50.1605 60.0881 52.5662 60.04C53.7689 60.0159 54.723 60.0099 55.3756 60.0098C55.7019 60.0098 55.9529 60.0113 56.1219 60.0127C56.2065 60.0135 56.2705 60.0142 56.3132 60.0148L56.3612 60.0154L56.3766 60.0157ZM56.3766 60.0157L56.3859 59.473C56.3766 60.0157 56.3767 60.0157 56.3766 60.0157ZM56.9147 26.4207C56.9149 26.4208 56.9124 26.4225 56.9063 26.4258C56.9114 26.4224 56.9145 26.4207 56.9147 26.4207Z" stroke="inherit"/>
<path fill-rule="evenodd" clip-rule="evenodd" d="M94.1574 25.7781L93.6531 25.8583L93.2699 25.5074L93.9923 24.6522L94.1574 25.7781ZM94.0378 26.2072C94.038 26.2069 94.038 26.2069 94.0378 26.2072V26.2072ZM93.3562 27.3459C92.9781 28.0974 92.4892 29.259 92.015 30.9377C91.5035 32.7486 90.327 36.9163 89.2784 40.6314L87.3091 47.6087C87.3091 47.6088 87.3091 47.6088 86.8195 47.459C86.33 47.3092 86.3301 47.3092 86.3301 47.3091L88.2994 40.3318C89.348 36.6168 90.5245 32.4489 91.0361 30.6379C91.557 28.7938 92.102 27.5268 92.5239 26.7126C92.7349 26.3055 92.9149 26.0119 93.0455 25.8161C93.1108 25.7182 93.1637 25.6449 93.2019 25.5941C93.221 25.5687 93.2364 25.5489 93.2478 25.5345C93.2535 25.5274 93.2583 25.5215 93.262 25.517L93.2667 25.5112L93.2685 25.5091L93.2693 25.5082L93.2696 25.5078C93.2698 25.5076 93.2699 25.5074 93.6531 25.8583C94.1574 25.7781 94.1574 25.7779 94.1574 25.7781L94.1887 25.9909C94.2092 26.13 94.2392 26.3342 94.2777 26.5949C94.3546 27.1163 94.4652 27.8634 94.5995 28.7664C94.8681 30.5723 95.2319 33.0013 95.6125 35.4936C95.9931 37.9862 96.3904 40.5408 96.7261 42.5986C97.0646 44.6738 97.3344 46.2038 97.4605 46.6794L96.4769 46.9623C96.3334 46.4211 96.0538 44.8224 95.7201 42.7765C95.3835 40.7132 94.9856 38.1543 94.6047 35.6604C94.2238 33.1663 93.8598 30.7358 93.5911 28.929C93.5012 28.3245 93.4219 27.7898 93.3562 27.3459Z" fill="inherit"/>
<path d="M93.6531 25.8583L94.1574 25.7781M93.6531 25.8583L93.2699 25.5074L93.9923 24.6522L94.1574 25.7781M93.6531 25.8583C93.2699 25.5074 93.2698 25.5076 93.2696 25.5078L93.2693 25.5082L93.2685 25.5091L93.2667 25.5112L93.262 25.517C93.2583 25.5215 93.2535 25.5274 93.2478 25.5345C93.2364 25.5489 93.221 25.5687 93.2019 25.5941C93.1637 25.6449 93.1108 25.7182 93.0455 25.8161C92.9149 26.0119 92.7349 26.3055 92.5239 26.7126C92.102 27.5268 91.557 28.7938 91.0361 30.6379C90.5245 32.4489 89.348 36.6168 88.2994 40.3318L86.3301 47.3091C86.3301 47.3092 86.33 47.3092 86.8195 47.459C87.3091 47.6088 87.3091 47.6088 87.3091 47.6087L89.2784 40.6314C90.327 36.9163 91.5035 32.7486 92.015 30.9377M93.6531 25.8583C94.1574 25.7781 94.1574 25.7779 94.1574 25.7781M94.1574 25.7781L94.1887 25.9909C94.2092 26.13 94.2392 26.3342 94.2777 26.5949C94.3546 27.1163 94.4652 27.8634 94.5995 28.7664C94.8681 30.5723 95.2319 33.0013 95.6125 35.4936C95.9931 37.9862 96.3904 40.5408 96.7261 42.5986C97.0646 44.6738 97.3344 46.2038 97.4605 46.6794L96.4769 46.9623C96.3334 46.4211 96.0538 44.8224 95.7201 42.7765C95.3835 40.7132 94.9856 38.1543 94.6047 35.6604C94.2238 33.1663 93.8598 30.7358 93.5911 28.929C93.5012 28.3245 93.4219 27.7898 93.3562 27.3459C92.9781 28.0974 92.4892 29.259 92.015 30.9377M92.015 30.9377L91.5908 30.8078M94.0378 26.2072C94.038 26.2069 94.038 26.2069 94.0378 26.2072Z" stroke="inherit"/>
<path fill-rule="evenodd" clip-rule="evenodd" d="M109.057 23.4339C107.543 24.122 106.075 24.8718 104.835 25.8244C103.426 26.9078 102.69 28.2837 102.48 29.5363C102.267 30.8051 102.596 31.8895 103.226 32.4799C104.356 33.5389 105.761 34.1611 107.165 34.7826C107.533 34.9457 107.902 35.1087 108.265 35.2795C109.945 36.0702 111.559 37.0621 111.825 39.165C111.977 40.367 111.204 41.3938 110.234 42.1994C109.241 43.0234 107.897 43.7408 106.574 44.3277C105.245 44.9175 103.905 45.3894 102.9 45.7133C102.397 45.8754 101.976 46.001 101.681 46.0863C101.533 46.1289 101.416 46.1615 101.336 46.1835C101.296 46.1945 101.265 46.2029 101.244 46.2086L101.22 46.2151L101.213 46.2168L101.211 46.2173L101.211 46.2174C101.211 46.2174 101.211 46.2175 101.075 45.6973C100.939 45.1772 100.939 45.1772 100.939 45.1772L100.939 45.1771L100.94 45.1768L100.945 45.1755L100.967 45.1697C100.986 45.1646 101.015 45.1567 101.053 45.1463C101.129 45.1253 101.242 45.094 101.385 45.0527C101.671 44.97 102.082 44.8476 102.573 44.6893C103.556 44.3723 104.858 43.9134 106.141 43.3441C107.431 42.7717 108.67 42.1015 109.55 41.3708C110.453 40.6215 110.841 39.9264 110.762 39.3006C110.574 37.8134 109.479 37.0385 107.81 36.2532C107.495 36.1051 107.16 35.9574 106.813 35.8043C105.394 35.1782 103.771 34.4626 102.495 33.2658L102.86 32.8728L102.495 33.2658C101.529 32.3607 101.169 30.8709 101.423 29.3578C101.68 27.8283 102.566 26.2143 104.184 24.9707L104.488 25.3699L104.184 24.9707C105.523 23.9413 107.082 23.1509 108.614 22.4543C109.157 22.2074 109.692 21.9741 110.215 21.7465C111.189 21.3218 112.118 20.9166 112.973 20.4783L113.461 21.4359C112.578 21.8885 111.593 22.3183 110.597 22.7527C110.082 22.9773 109.564 23.203 109.057 23.4339Z" fill="inherit" stroke="inherit"/>
<path fill-rule="evenodd" clip-rule="evenodd" d="M74.2797 38.695C69.3964 38.9392 64.7219 39.173 59.8432 39.5936C53.7598 40.118 39.0271 41.7733 25.8049 43.2988C19.1961 44.0613 12.968 44.791 8.39205 45.33C6.10409 45.5996 4.22921 45.8214 2.92633 45.9759C2.27489 46.0532 1.76646 46.1136 1.42089 46.1546L0.893214 46.2174C0.892859 46.2175 0.892683 46.2175 0.828544 45.6839C0.764404 45.1502 0.764585 45.1502 0.764943 45.1502L1.29291 45.0874C1.63858 45.0463 2.14713 44.9858 2.79869 44.9086C4.1018 44.7541 5.97696 44.5322 8.26523 44.2626C12.8417 43.7235 19.0708 42.9937 25.6807 42.2311C38.8961 40.7064 53.6474 39.0488 59.7501 38.5227C64.6794 38.0977 69.3806 37.8627 74.2795 37.6178C86.7036 36.9967 100.399 36.312 122.309 32.3044L122.504 33.3616C100.52 37.3828 86.722 38.0728 74.2797 38.695Z" fill="inherit" stroke="inherit"/>
<path fill-rule="evenodd" clip-rule="evenodd" d="M87.7214 26.4337C86.7214 28.9757 85.5833 32.1835 84.9241 34.7463C84.1847 37.6206 82.8328 42.9362 82.0521 46.5694L81.9292 47.1411L81.3622 46.9737C81.0476 46.8808 80.8317 46.6217 80.691 46.4136C80.5342 46.1817 80.3871 45.8841 80.2476 45.5486C79.9674 44.8746 79.6848 43.9662 79.4058 42.9265C78.8465 40.8426 78.2825 38.1575 77.7717 35.5966C77.5916 34.6939 77.4183 33.8076 77.254 32.9672C77.0093 31.7158 76.7845 30.5662 76.5868 29.6155C76.2298 32.1198 75.6174 34.6127 75.0388 36.6334C74.6543 37.9763 74.283 39.117 74.0075 39.9225C73.8697 40.3254 73.7559 40.6448 73.6762 40.8639C73.6364 40.9735 73.6051 41.0581 73.5837 41.1156C73.573 41.1443 73.5647 41.1663 73.5591 41.1812L73.5526 41.1983L73.5522 41.1994C73.4913 41.3689 73.415 41.5833 73.3272 41.83C73.016 42.7043 72.5604 43.984 72.1377 45.1058C71.8668 45.8247 71.6047 46.4913 71.3997 46.9492C71.3007 47.1705 71.2016 47.3737 71.1124 47.51C71.0888 47.5461 71.0588 47.5885 71.0229 47.6294C70.9941 47.6621 70.9279 47.7338 70.825 47.7861C70.7045 47.8473 70.464 47.9075 70.2345 47.7477C70.0628 47.6281 70.0156 47.4577 70.0029 47.408L68.7367 42.4624C68.3697 41.1479 67.7784 37.4957 67.2836 34.2183C67.0342 32.5666 66.8071 30.9946 66.6423 29.8357C66.6254 29.7163 66.6091 29.6013 66.5935 29.4911C66.2077 30.2775 65.7169 31.4507 65.2283 33.0915C64.683 34.9227 63.6135 38.7237 62.6789 42.0717C62.212 43.7446 61.7792 45.3029 61.4631 46.4429C61.3051 47.0129 61.1762 47.4783 61.0869 47.8012L60.9478 48.3043C60.9478 48.3044 60.9478 48.3045 60.4215 48.1627C59.8952 48.0209 59.8952 48.0209 59.8953 48.0208L60.0345 47.5172C60.1239 47.1941 60.2528 46.7285 60.4108 46.1583C60.727 45.0179 61.16 43.459 61.6272 41.7853C62.5609 38.44 63.6332 34.6293 64.1816 32.7875C64.7374 30.9211 65.3021 29.6198 65.7338 28.7776C65.9496 28.3566 66.1321 28.0505 66.2635 27.8461C66.3291 27.7439 66.382 27.6672 66.4199 27.6142C66.4388 27.5877 66.4539 27.5672 66.4651 27.5525C66.4706 27.5451 66.4752 27.5391 66.4787 27.5346L66.4832 27.5288L66.4848 27.5267L66.4858 27.5255C66.4859 27.5253 66.486 27.5252 66.9156 27.8573C67.4562 27.7849 67.4562 27.7849 67.4562 27.785L67.4746 27.9189C67.4868 28.0067 67.5047 28.1359 67.5277 28.3013C67.5738 28.632 67.6405 29.1074 67.7227 29.6858C67.8872 30.8428 68.1138 32.4116 68.3626 34.0594C68.8635 37.376 69.4454 40.9514 69.7899 42.1809L69.7915 42.1867L70.7105 45.7764C70.8363 45.462 70.9733 45.1065 71.1152 44.7299C71.534 43.6187 71.9841 42.3541 72.2955 41.4794C72.385 41.2279 72.4631 41.0086 72.5256 40.8345L72.5274 40.8295L72.5293 40.8246L72.5297 40.8236L72.531 40.8201L72.5368 40.8049C72.5419 40.7912 72.5497 40.7706 72.5599 40.7432C72.5803 40.6884 72.6106 40.6066 72.6493 40.4999C72.7269 40.2866 72.8385 39.9737 72.9738 39.5778C73.2447 38.7857 73.6104 37.6625 73.989 36.3402C74.7479 33.6894 75.5513 30.2638 75.7558 27.109L76.3002 27.1434L75.758 27.0839C75.7695 26.982 75.7873 26.8684 75.8219 26.7677C75.8384 26.7196 75.8706 26.6379 75.9341 26.558C76.0002 26.4747 76.144 26.3431 76.3717 26.3349C76.5846 26.3273 76.7291 26.4341 76.7908 26.4897C76.8571 26.5493 76.9005 26.6136 76.9257 26.6549C76.9779 26.7402 77.019 26.8391 77.0518 26.9279C77.1831 27.2835 77.3402 27.9303 77.5153 28.7375C77.7461 29.8015 78.023 31.2175 78.3285 32.7798C78.4924 33.6178 78.6645 34.4978 78.8421 35.3883C79.353 37.9491 79.9111 40.6037 80.4604 42.6505C80.7342 43.6708 81.0011 44.5219 81.2529 45.1297C82.0519 41.5836 83.2065 37.0474 83.8667 34.481C84.5417 31.8567 85.6977 28.6025 86.7044 26.0435L87.7214 26.4337ZM66.9156 27.8573L67.4562 27.785L67.2826 26.5201L66.486 27.5252L66.9156 27.8573Z" fill="inherit"/>
<path d="M65.2283 33.0915C65.7169 31.4507 66.2077 30.2775 66.5935 29.4911C66.6091 29.6013 66.6254 29.7163 66.6423 29.8357C66.8071 30.9946 67.0342 32.5666 67.2836 34.2183C67.7784 37.4957 68.3697 41.1479 68.7367 42.4624L70.0029 47.408C70.0156 47.4577 70.0628 47.6281 70.2345 47.7477C70.464 47.9075 70.7045 47.8473 70.825 47.7861C70.9279 47.7338 70.9941 47.6621 71.0229 47.6294C71.0588 47.5885 71.0888 47.5461 71.1124 47.51C71.2016 47.3737 71.3007 47.1705 71.3997 46.9492C71.6047 46.4913 71.8668 45.8247 72.1377 45.1058C72.5604 43.984 73.016 42.7043 73.3272 41.83C73.415 41.5833 73.4913 41.3689 73.5522 41.1994L73.5526 41.1983L73.5591 41.1812C73.5647 41.1663 73.573 41.1443 73.5837 41.1156C73.6051 41.0581 73.6364 40.9735 73.6762 40.8639C73.7559 40.6448 73.8697 40.3254 74.0075 39.9225C74.283 39.117 74.6543 37.9763 75.0388 36.6334C75.6174 34.6127 76.2298 32.1198 76.5868 29.6155C76.7845 30.5662 77.0093 31.7158 77.254 32.9672C77.4183 33.8076 77.5916 34.6939 77.7717 35.5966C78.2825 38.1575 78.8465 40.8426 79.4058 42.9265C79.6848 43.9662 79.9674 44.8746 80.2476 45.5486C80.3871 45.8841 80.5342 46.1817 80.691 46.4136C80.8317 46.6217 81.0476 46.8808 81.3622 46.9737L81.9292 47.1411L82.0521 46.5694C82.8328 42.9362 84.1847 37.6206 84.9241 34.7463C85.5833 32.1835 86.7214 28.9757 87.7214 26.4337L86.7044 26.0435C85.6977 28.6025 84.5417 31.8567 83.8667 34.481C83.2065 37.0474 82.0519 41.5836 81.2529 45.1297C81.0011 44.5219 80.7342 43.6708 80.4604 42.6505C79.9111 40.6037 79.353 37.9491 78.8421 35.3883C78.6645 34.4978 78.4924 33.6178 78.3285 32.7798C78.023 31.2175 77.7461 29.8015 77.5153 28.7375C77.3402 27.9303 77.1831 27.2835 77.0518 26.9279C77.019 26.8391 76.9779 26.7402 76.9257 26.6549C76.9005 26.6136 76.8571 26.5493 76.7908 26.4897C76.7291 26.4341 76.5846 26.3273 76.3717 26.3349C76.144 26.3431 76.0002 26.4747 75.9341 26.558C75.8706 26.6379 75.8384 26.7196 75.8219 26.7677C75.7873 26.8684 75.7695 26.982 75.758 27.0839L76.3002 27.1434L75.7558 27.109C75.5513 30.2638 74.7479 33.6894 73.989 36.3402C73.6104 37.6625 73.2447 38.7857 72.9738 39.5778C72.8385 39.9737 72.7269 40.2866 72.6493 40.4999C72.6106 40.6066 72.5803 40.6884 72.5599 40.7432C72.5497 40.7706 72.5419 40.7912 72.5368 40.8049L72.531 40.8201L72.5297 40.8236L72.5293 40.8246L72.5274 40.8295L72.5256 40.8345C72.4631 41.0086 72.385 41.2279 72.2955 41.4794C71.9841 42.3541 71.534 43.6187 71.1152 44.7299C70.9733 45.1065 70.8363 45.462 70.7105 45.7764L69.7915 42.1867L69.7899 42.1809C69.4454 40.9514 68.8635 37.376 68.3626 34.0594C68.1138 32.4116 67.8872 30.8428 67.7227 29.6858C67.6405 29.1074 67.5738 28.632 67.5277 28.3013C67.5047 28.1359 67.4868 28.0067 67.4746 27.9189L67.4562 27.785M65.2283 33.0915L64.7986 32.9667M65.2283 33.0915C64.683 34.9227 63.6135 38.7237 62.6789 42.0717C62.212 43.7446 61.7792 45.3029 61.4631 46.4429C61.3051 47.0129 61.1762 47.4783 61.0869 47.8012L60.9478 48.3043C60.9478 48.3044 60.9478 48.3045 60.4215 48.1627C59.8952 48.0209 59.8952 48.0209 59.8953 48.0208L60.0345 47.5172C60.1239 47.1941 60.2528 46.7285 60.4108 46.1583C60.727 45.0179 61.16 43.459 61.6272 41.7853C62.5609 38.44 63.6332 34.6293 64.1816 32.7875C64.7374 30.9211 65.3021 29.6198 65.7338 28.7776C65.9496 28.3566 66.1321 28.0505 66.2635 27.8461C66.3291 27.7439 66.382 27.6672 66.4199 27.6142C66.4388 27.5877 66.4539 27.5672 66.4651 27.5525C66.4706 27.5451 66.4752 27.5391 66.4787 27.5346L66.4832 27.5288L66.4848 27.5267L66.4858 27.5255C66.4859 27.5253 66.486 27.5252 66.9156 27.8573M66.9156 27.8573C67.4562 27.7849 67.4562 27.7849 67.4562 27.785M66.9156 27.8573L67.4562 27.785M66.9156 27.8573L66.486 27.5252L67.2826 26.5201L67.4562 27.785" stroke="inherit"/>
</svg>
