<?xml version="1.0" encoding="UTF-8" standalone="no"?>
<svg
   width="80"
   height="80"
   viewBox="0 0 80 80"
   fill="none"
   version="1.1"
   id="svg794"
   xmlns="http://www.w3.org/2000/svg"
   xmlns:svg="http://www.w3.org/2000/svg">
  <defs
     id="defs798" />
  <path
     d="M40 70C31.6667 70 24.5833 67.0833 18.75 61.25C12.9167 55.4167 10 48.3333 10 40C10 31.6667 12.9167 24.5833 18.75 18.75C24.5833 12.9167 31.6667 10 40 10C40.7778 10 41.5422 10.0278 42.2933 10.0833C43.0422 10.1389 43.7778 10.2222 44.5 10.3333C42.2222 11.9444 40.4033 14.0411 39.0433 16.6233C37.6811 19.2078 37 22 37 25C37 30 38.75 34.25 42.25 37.75C45.75 41.25 50 43 55 43C58.0556 43 60.8611 42.3189 63.4167 40.9567C65.9722 39.5967 68.0556 37.7778 69.6667 35.5C69.7778 36.2222 69.8611 36.9578 69.9167 37.7067C69.9722 38.4578 70 39.2222 70 40C70 48.3333 67.0833 55.4167 61.25 61.25C55.4167 67.0833 48.3333 70 40 70Z"
     fill="currentcolor"
     id="path792"
     style="fill:#0c132c;fill-opacity:1" />
</svg>
