<?xml version="1.0" encoding="UTF-8" standalone="no"?>
<svg
   width="80"
   height="80"
   viewBox="0 0 80 80"
   fill="none"
   version="1.1"
   id="svg4"
   sodipodi:docname="light-mode.svg"
   inkscape:version="1.2 (dc2aedaf03, 2022-05-15)"
   xmlns:inkscape="http://www.inkscape.org/namespaces/inkscape"
   xmlns:sodipodi="http://sodipodi.sourceforge.net/DTD/sodipodi-0.dtd"
   xmlns="http://www.w3.org/2000/svg"
   xmlns:svg="http://www.w3.org/2000/svg">
  <defs
     id="defs8" />
  <sodipodi:namedview
     id="namedview6"
     pagecolor="#505050"
     bordercolor="#eeeeee"
     borderopacity="1"
     inkscape:showpageshadow="0"
     inkscape:pageopacity="0"
     inkscape:pagecheckerboard="0"
     inkscape:deskcolor="#505050"
     showgrid="false"
     inkscape:zoom="2.95"
     inkscape:cx="-16.949153"
     inkscape:cy="40"
     inkscape:window-width="1920"
     inkscape:window-height="1017"
     inkscape:window-x="-8"
     inkscape:window-y="-8"
     inkscape:window-maximized="1"
     inkscape:current-layer="svg4" />
  <path
     d="M39.8667 23.6667C44.2869 23.6667 48.5262 25.4226 51.6518 28.5482C54.7774 31.6738 56.5333 35.9131 56.5333 40.3333C56.5333 44.7536 54.7774 48.9928 51.6518 52.1184C48.5262 55.2441 44.2869 57 39.8667 57C35.4464 57 31.2072 55.2441 28.0816 52.1184C24.9559 48.9928 23.2 44.7536 23.2 40.3333C23.2 35.9131 24.9559 31.6738 28.0816 28.5482C31.2072 25.4226 35.4464 23.6667 39.8667 23.6667ZM39.8667 7L47.8333 18.4C45.3667 17.5 42.6667 17 39.8667 17C37.0667 17 34.3667 17.5 31.9 18.4L39.8667 7ZM11 23.6667L24.8667 22.5C22.7978 24.2475 21.0397 26.3325 19.6667 28.6667C18.2 31.1333 17.3667 33.6667 16.9 36.3L11 23.6667ZM11.0667 57L16.9333 44.4333C17.9132 49.8084 20.7148 54.6818 24.8667 58.2333L11.0667 57ZM68.7 23.6667L62.8 36.3C61.856 30.9025 59.0485 26.0072 54.8667 22.4667L68.7 23.6667ZM68.6667 57L54.8667 58.2C56.8333 56.5 58.6 54.4 60 52C61.4 49.5667 62.3 47 62.7667 44.3667L68.6667 57ZM39.8667 73.6667L31.8333 62.2C34.3 63.1 37 63.6667 39.8667 63.6667C42.6 63.6667 45.3 63.1 47.7667 62.2L39.8667 73.6667Z"
     fill="currentColor"
     id="path2"
     style="fill:#0c132c;fill-opacity:1" />
</svg>
