<svg width="159" height="216" viewBox="0 0 159 216" fill="none" xmlns="http://www.w3.org/2000/svg">
<path d="M128.184 133.437C129.229 127.353 131.857 91.7466 131.649 87.7365C131.432 83.5627 132.544 81.1495 132.616 77.6524C132.778 69.8089 132.548 62.568 132.358 56.0388C132.29 53.6954 135.584 52.8166 136.327 56.6414C136.979 59.9943 137.19 62.237 137.19 62.237L138.053 74.8058C138.053 74.8058 139.261 78.1631 142.368 75.0635C145.475 71.9644 149.935 61.1435 149.935 61.1435C149.935 61.1435 151.155 56.8215 152.864 54.6301C154.573 52.4387 156.769 54.9953 156.769 54.9953C156.769 54.9953 157.38 56.2736 155.244 60.7783C153.108 65.2829 147.006 78.7358 147.006 78.7358C147.006 78.7358 147.189 80.8663 148.654 80.8054C150.118 80.7455 152.254 80.3184 152.254 80.3184C152.254 80.3184 153.779 80.4407 154.084 82.4489C154.39 84.4578 153.474 85.9795 153.474 85.9795C153.474 85.9795 154.084 87.0754 156.281 87.5624C158.478 88.0494 154.939 91.6407 154.939 91.6407C154.939 91.6407 153.657 93.3454 153.84 98.2759C154.023 103.207 149.013 106.313 149.013 106.313L146.967 110.637C146.967 110.637 149.935 153.555 147.006 160.337C144.077 167.118 139.437 168.341 133.978 164.522C128.519 160.702 106.717 130.755 106.717 130.755L101.351 214H35.6102L26.0072 137.461C26.2871 130.718 26.4864 122.266 26.2186 114.685L22.1938 156.238L25.1646 212.775L7.21403 214C7.21403 214 1.90995 171.746 2.06911 156.238C2.22802 140.729 0.727417 97.225 6.3595 91.9372L43.2939 77.8188M46.7457 39.9403C50.6509 34.0964 58.8252 37.4035 70.0528 30.5858C81.2806 23.7682 81.0366 10.376 79.816 5.2625C68.1003 0.392634 55.8076 0.920512 46.377 7.21055C32.0389 16.7735 30.9999 37.8905 31.9763 51.0391C32.9527 64.1876 45.6448 70.0315 45.6448 70.0315L43.2039 59.8048C43.2039 59.8048 42.8404 45.7842 46.7457 39.9403ZM46.7457 39.9403C46.7457 39.9403 48.8169 64.9058 45.0197 71.1039L43.2939 77.8188M81.0364 10.6196C81.0364 10.6196 108.862 34.9687 85.6741 73.197C74.6294 83.1583 48.4374 62.6433 46.8297 42.2359M110.432 88.8381C109.224 88.8381 77.9122 78.4482 77.9122 78.4482L75.7409 105.022L43.2939 77.8188M108.882 87.1363C108.882 87.1363 120.391 102.211 129.572 120.025M79.9992 5.32367C79.9992 5.32367 102.271 5.01938 105.2 21.8201C108.129 38.6212 94.8737 44.9183 94.8737 44.9183C94.8737 44.9183 95.9253 22.3071 83.4771 13.7848C79.5721 9.88898 79.9992 5.32367 79.9992 5.32367Z" stroke="#0C132C" stroke-width="3"/>
</svg>
