<svg width="80" height="80" viewBox="0 0 80 80" fill="none" xmlns="http://www.w3.org/2000/svg">
<path d="M31.3852 43.9953C31.6761 38.8064 34.2168 34.2352 38.0502 30.9946C41.8093 27.8117 46.8689 25.8663 52.3896 25.8663C57.9048 25.8663 62.9647 27.8117 66.7265 30.9946C70.5568 34.2349 73.0979 38.8064 73.3916 43.9897C73.6822 49.3211 71.5392 54.2738 67.7802 57.9451C63.9471 61.6794 58.4947 64.0227 52.3896 64.0227C46.2845 64.0227 40.8216 61.6794 36.991 57.9451C33.2291 54.2735 31.0915 49.3208 31.3852 43.9953Z" fill="white"/>
<path d="M41.6148 44.4581C41.7639 41.7959 43.0678 39.4501 45.0345 37.7875C46.9634 36.1545 49.5594 35.1561 52.3923 35.1561C55.2221 35.1561 57.8184 36.1545 59.7486 37.7875C61.714 39.4501 63.0177 41.7959 63.1683 44.4556C63.3176 47.191 62.2183 49.7324 60.2891 51.616C58.3224 53.532 55.5249 54.7344 52.3923 54.7344C49.2598 54.7344 46.4566 53.532 44.4911 51.616C42.561 49.7324 41.4642 47.191 41.6148 44.4581Z" fill="#265787"/>
<path d="M24.5045 49.9276C24.5232 50.9713 24.856 53.0005 25.3556 54.5848C26.4052 57.9385 28.1857 61.0414 30.6633 63.7755C33.2059 66.5862 36.3366 68.8438 39.9531 70.4465C43.7541 72.1298 47.8725 72.9875 52.1502 72.9807C56.4211 72.9747 60.5398 72.1001 64.3407 70.404C67.957 68.7857 71.0848 66.5184 73.6234 63.7065C76.0994 60.9608 77.8771 57.8526 78.9298 54.4988C79.4588 52.8043 79.7932 51.0844 79.9272 49.3586C80.0584 47.6562 80.0031 45.9445 79.7622 44.2541C79.291 40.9384 78.1436 37.8274 76.3772 34.9914C74.7617 32.3854 72.6794 30.104 70.203 28.1836L70.2087 28.1795L45.2202 8.99211C45.1974 8.97523 45.1789 8.95711 45.1549 8.94149C43.5156 7.68284 40.7584 7.68722 38.9554 8.94836C37.1324 10.2239 36.9237 12.3334 38.5461 13.6636L38.5392 13.6708L48.9617 22.1463L17.1948 22.18H17.1523C14.5266 22.1832 12.0027 23.9058 11.5028 26.0828C10.9894 28.3008 12.773 30.1406 15.5031 30.1506L15.4987 30.1603L31.6004 30.129L2.86789 52.1837C2.83133 52.2106 2.79165 52.2387 2.7579 52.2656C0.0475111 54.341 -0.828664 57.7923 0.878377 59.9762C2.61104 62.1972 6.2951 62.2013 9.03361 59.989L24.7148 47.1554C24.7148 47.1554 24.486 48.8877 24.5045 49.9276ZM64.7994 55.729C61.5685 59.0209 57.0448 60.8873 52.1505 60.8973C47.2488 60.9058 42.7254 59.0559 39.4944 55.77C37.9155 54.1685 36.7559 52.3259 36.0404 50.3632C35.3371 48.4318 35.0664 46.3694 35.2476 44.3219C35.4182 42.3027 36.0194 40.3769 36.9787 38.6342C37.9211 36.9216 39.2191 35.3736 40.8221 34.0643C43.9625 31.5052 47.9612 30.1194 52.143 30.1137C56.3295 30.1081 60.3251 31.4811 63.4689 34.0321C65.0688 35.3355 66.3656 36.8778 67.308 38.588C68.28 40.3398 68.8722 42.2767 69.0463 44.2725C69.2247 46.3188 68.9531 48.3794 68.2504 50.3095C67.5336 52.2781 66.3781 54.1207 64.7994 55.729Z" fill="#EA7600"/>
</svg>
