<svg width="80" height="80" viewBox="0 0 80 80" fill="none" xmlns="http://www.w3.org/2000/svg">
<g clip-path="url(#clip0_82_68)">
<path d="M40 80C62.0914 80 80 62.0914 80 40C80 17.9086 62.0914 0 40 0C17.9086 0 0 17.9086 0 40C0 62.0914 17.9086 80 40 80Z" fill="#7D2AE7"/>
<path d="M40 80C62.0914 80 80 62.0914 80 40C80 17.9086 62.0914 0 40 0C17.9086 0 0 17.9086 0 40C0 62.0914 17.9086 80 40 80Z" fill="url(#paint0_radial_82_68)"/>
<path d="M40 80C62.0914 80 80 62.0914 80 40C80 17.9086 62.0914 0 40 0C17.9086 0 0 17.9086 0 40C0 62.0914 17.9086 80 40 80Z" fill="url(#paint1_radial_82_68)"/>
<path d="M40 80C62.0914 80 80 62.0914 80 40C80 17.9086 62.0914 0 40 0C17.9086 0 0 17.9086 0 40C0 62.0914 17.9086 80 40 80Z" fill="url(#paint2_radial_82_68)"/>
<path d="M40 80C62.0914 80 80 62.0914 80 40C80 17.9086 62.0914 0 40 0C17.9086 0 0 17.9086 0 40C0 62.0914 17.9086 80 40 80Z" fill="url(#paint3_radial_82_68)"/>
<path d="M57.2691 48.2055C56.939 48.2055 56.6485 48.4842 56.3462 49.0931C52.9323 56.0156 47.0358 60.9137 40.2125 60.9137C32.3228 60.9137 27.437 53.7916 27.437 43.9524C27.437 27.2857 36.7232 17.6494 44.8796 17.6494C48.691 17.6494 51.0186 20.0446 51.0186 23.8561C51.0186 28.3799 48.4485 30.775 48.4485 32.3705C48.4485 33.0867 48.8939 33.5203 49.7773 33.5203C53.3264 33.5203 57.4918 29.4422 57.4918 23.6811C57.4918 18.095 52.63 13.989 44.4737 13.989C30.994 13.989 19.0142 26.486 19.0142 43.7773C19.0142 57.1617 26.6572 66.0063 38.45 66.0063C50.9668 66.0063 58.2043 53.5528 58.2043 49.5107C58.2043 48.6156 57.7466 48.2055 57.2691 48.2055Z" fill="white"/>
</g>
<defs>
<radialGradient id="paint0_radial_82_68" cx="0" cy="0" r="1" gradientUnits="userSpaceOnUse" gradientTransform="translate(15.453 70.9057) rotate(-49.416) scale(61.8733)">
<stop stop-color="#6420FF"/>
<stop offset="1" stop-color="#6420FF" stop-opacity="0"/>
</radialGradient>
<radialGradient id="paint1_radial_82_68" cx="0" cy="0" r="1" gradientUnits="userSpaceOnUse" gradientTransform="translate(21.1788 9.09457) rotate(54.703) scale(69.7735)">
<stop stop-color="#00C4CC"/>
<stop offset="1" stop-color="#00C4CC" stop-opacity="0"/>
</radialGradient>
<radialGradient id="paint2_radial_82_68" cx="0" cy="0" r="1" gradientUnits="userSpaceOnUse" gradientTransform="translate(15.4526 70.9053) rotate(-45.1954) scale(61.1242 28.1118)">
<stop stop-color="#6420FF"/>
<stop offset="1" stop-color="#6420FF" stop-opacity="0"/>
</radialGradient>
<radialGradient id="paint3_radial_82_68" cx="0" cy="0" r="1" gradientUnits="userSpaceOnUse" gradientTransform="translate(32.7158 10.7789) rotate(66.5198) scale(62.9836 105.512)">
<stop stop-color="#00C4CC" stop-opacity="0.725916"/>
<stop offset="0.0001" stop-color="#00C4CC"/>
<stop offset="1" stop-color="#00C4CC" stop-opacity="0"/>
</radialGradient>
<clipPath id="clip0_82_68">
<rect width="80" height="80" fill="white"/>
</clipPath>
</defs>
</svg>
