<svg width="80" height="80" viewBox="0 0 80 80" fill="none" xmlns="http://www.w3.org/2000/svg">
<path d="M7.53758 57.7175C6.81508 58.8975 6.00258 60.2675 5.31008 61.3575C5.01376 61.8602 4.92634 62.4591 5.06655 63.0256C5.20677 63.5921 5.56346 64.081 6.06008 64.3875L20.5401 73.2975C20.7889 73.4514 21.0655 73.5548 21.3543 73.6016C21.6431 73.6485 21.9382 73.638 22.2229 73.5706C22.5076 73.5033 22.7762 73.3805 23.0134 73.2092C23.2506 73.0379 23.4516 72.8216 23.6051 72.5725L23.6251 72.54C24.2026 71.5725 24.9501 70.3125 25.7626 68.965C31.4976 59.4975 37.2626 60.6575 47.6701 65.625L62.0276 72.4525C62.292 72.5785 62.5787 72.6511 62.8712 72.6662C63.1637 72.6814 63.4563 72.6387 63.7324 72.5408C64.0084 72.4428 64.2624 72.2914 64.4799 72.0952C64.6975 71.8991 64.8742 71.662 65.0001 71.3975L65.0276 71.3375L71.9151 55.75C72.1491 55.2149 72.1637 54.6094 71.9556 54.0637C71.7475 53.518 71.3334 53.0759 70.8026 52.8325C65.9653 50.5598 61.1386 48.2647 56.3226 45.9475C36.8101 36.465 20.2251 37.0775 7.53758 57.7175Z" fill="url(#paint0_linear_82_115)"/>
<path d="M72.4625 22.33C73.185 21.15 73.9975 19.78 74.69 18.69C74.9863 18.1873 75.0737 17.5884 74.9335 17.0219C74.7933 16.4554 74.4366 15.9665 73.94 15.66L59.4625 6.75C59.2201 6.58653 58.9478 6.47243 58.6613 6.41423C58.3747 6.35604 58.0796 6.35488 57.7926 6.41084C57.5056 6.46679 57.2325 6.57876 56.9888 6.74034C56.7451 6.90191 56.5357 7.10993 56.3725 7.3525C56.3426 7.39516 56.3151 7.43939 56.29 7.485C55.71 8.4525 54.965 9.7125 54.15 11.06C48.415 20.5275 42.65 19.3675 32.2425 14.4L17.93 7.6075C17.666 7.48157 17.3799 7.4089 17.0878 7.39365C16.7958 7.37839 16.5036 7.42086 16.228 7.51861C15.9524 7.61636 15.6988 7.76748 15.4816 7.96333C15.2645 8.15918 15.0881 8.39592 14.9625 8.66L14.935 8.72L8.03996 24.315C7.80592 24.8501 7.79138 25.4556 7.99945 26.0013C8.20753 26.547 8.62159 26.9891 9.15246 27.2325C12.1825 28.6575 18.2075 31.4975 23.6325 34.115C43.19 43.5825 59.775 42.9475 72.4625 22.33Z" fill="url(#paint1_linear_82_115)"/>
<defs>
<linearGradient id="paint0_linear_82_115" x1="71.5176" y1="77.9125" x2="27.7126" y2="52.74" gradientUnits="userSpaceOnUse">
<stop offset="0.18" stop-color="#0052CC"/>
<stop offset="1" stop-color="#2684FF"/>
</linearGradient>
<linearGradient id="paint1_linear_82_115" x1="8.46996" y1="2.1425" x2="52.2875" y2="27.325" gradientUnits="userSpaceOnUse">
<stop offset="0.18" stop-color="#0052CC"/>
<stop offset="1" stop-color="#2684FF"/>
</linearGradient>
</defs>
</svg>
