<svg width="80" height="80" viewBox="0 0 80 80" fill="none" xmlns="http://www.w3.org/2000/svg">
<g clip-path="url(#clip0_82_10)">
<path d="M28.0014 76.4118C34.6246 76.4118 39.9999 70.9303 39.9999 64.1765V51.9412H28.0014C21.3783 51.9412 16.0029 57.4226 16.0029 64.1765C16.0029 70.9303 21.3783 76.4118 28.0014 76.4118Z" fill="#0ACF83"/>
<path d="M16.0029 39.7059C16.0029 32.952 21.3783 27.4706 28.0014 27.4706H39.9999V51.9412H28.0014C21.3783 51.9412 16.0029 46.4598 16.0029 39.7059Z" fill="#A259FF"/>
<path d="M16.0029 15.2353C16.0029 8.48141 21.3783 3 28.0014 3H39.9999V27.4706H28.0014C21.3783 27.4706 16.0029 21.9892 16.0029 15.2353Z" fill="#F24E1E"/>
<path d="M40 3H51.9985C58.6217 3 63.997 8.48141 63.997 15.2353C63.997 21.9892 58.6217 27.4706 51.9985 27.4706H40V3Z" fill="#FF7262"/>
<path d="M63.997 39.7059C63.997 46.4598 58.6217 51.9412 51.9985 51.9412C45.3753 51.9412 40 46.4598 40 39.7059C40 32.952 45.3753 27.4706 51.9985 27.4706C58.6217 27.4706 63.997 32.952 63.997 39.7059Z" fill="#1ABCFE"/>
</g>
<defs>
<clipPath id="clip0_82_10">
<rect width="48" height="73.4118" fill="white" transform="translate(16 3)"/>
</clipPath>
</defs>
</svg>
