<svg width="80" height="80" viewBox="0 0 80 80" fill="none" xmlns="http://www.w3.org/2000/svg">
<g clip-path="url(#clip0_82_47)">
<path d="M25.5533 49.57C26.3433 50.06 38.28 52.4867 41.1966 52.97C42.2066 53.1833 41.49 54.2233 40.0966 54.9267C36.9533 55.7633 21.7066 49.57 25.5533 49.57ZM44.3766 5.35667L56.06 17.2233C57.17 18.3567 57.1533 20.55 56.5333 21.18L50.7333 16.54L49.5933 23.41L44.7433 20.8533L36.9833 25.7533L34.4133 15.42L30.2433 22.6333H23.8666C21.2666 22.6333 20.9633 19.3333 23.3233 16.9733C27.4466 12.5233 32.18 7.98667 34.7533 5.35667C37.34 2.71334 41.8433 2.79 44.3766 5.35667ZM32.62 3.23334L3.08665 33.4533C-6.89002 45.81 9.87998 44.3733 17.0666 47.93C19.6466 50.5667 7.18332 52.5133 9.76332 55.15C12.34 57.7867 25.3566 60.23 27.94 62.8633C30.5166 65.5 22.66 68.2967 25.24 70.93C27.8166 73.57 33.7833 71.07 34.9 77.1567C35.6933 81.5033 45.6466 79.0233 50.5133 75.4633C53.0933 72.8267 45.58 73.0733 48.16 70.4367C54.57 63.88 60.5433 68.0567 62.7366 61.4833C63.82 58.2367 53.2966 56.48 55.88 53.8433C63.3 49.51 88.9433 46.69 76.7733 34.5233L46.1666 3.23334C42.4233 -0.359997 36.17 -0.399997 32.62 3.23334ZM66.5433 61.4833C66.5433 62.9833 77.59 63.9667 77.59 61.13C76.0166 56.5767 67.85 56.8833 66.5433 61.4833ZM16.7833 69.45C19.3966 71.7133 23.44 68.8867 24.65 65.73C22.1166 62.3633 12.6266 65.8533 16.7833 69.45ZM65.1566 64.5633C61.7866 67.59 65.5366 70.6567 68.86 68.7033C69.6 67.9533 68.8366 65.3167 65.1566 64.5633Z" fill="black"/>
</g>
<defs>
<clipPath id="clip0_82_47">
<rect width="80" height="80" fill="white"/>
</clipPath>
</defs>
</svg>
