<svg width="80" height="80" viewBox="0 0 80 80" fill="none" xmlns="http://www.w3.org/2000/svg">
<g clip-path="url(#clip0_82_108)">
<path d="M76.4556 0H38.0334C38.0334 4.60001 39.8608 9.01162 43.1135 12.2643C46.3662 15.517 50.7778 17.3444 55.3778 17.3444H62.4556V24.1781C62.4619 33.7484 70.2184 41.5053 79.7888 41.5116V3.33313C79.7888 1.49281 78.2969 0 76.4556 0Z" fill="#2684FF"/>
<path d="M57.4443 19.1444H19.0225C19.0284 28.7147 26.785 36.4716 36.3556 36.4778H43.4334V43.3334C43.4456 52.9038 51.2075 60.6553 60.7778 60.6553V22.4781C60.7778 20.6372 59.2853 19.1444 57.4443 19.1444Z" fill="url(#paint0_linear_82_108)"/>
<path d="M38.4222 38.2778H0C0 47.8569 7.76562 55.6222 17.3444 55.6222H24.4444V62.4556C24.4506 72.0172 32.1937 79.7706 41.7556 79.7888V41.6113C41.7556 39.7703 40.2631 38.2778 38.4222 38.2778Z" fill="url(#paint1_linear_82_108)"/>
</g>
<defs>
<linearGradient id="paint0_linear_82_108" x1="59.9556" y1="19.2112" x2="43.7108" y2="36.162" gradientUnits="userSpaceOnUse">
<stop offset="0.18" stop-color="#0052CC"/>
<stop offset="1" stop-color="#2684FF"/>
</linearGradient>
<linearGradient id="paint1_linear_82_108" x1="42.0333" y1="38.4667" x2="23.2421" y2="56.9548" gradientUnits="userSpaceOnUse">
<stop offset="0.18" stop-color="#0052CC"/>
<stop offset="1" stop-color="#2684FF"/>
</linearGradient>
<clipPath id="clip0_82_108">
<rect width="80" height="80" fill="white"/>
</clipPath>
</defs>
</svg>
