<svg width="80" height="80" viewBox="0 0 80 80" fill="none" xmlns="http://www.w3.org/2000/svg">
<path d="M71.6667 13.3333H8.33333C6.49167 13.3333 5 14.825 5 16.6667V63.3333C5 65.175 6.49167 66.6667 8.33333 66.6667H71.6667C73.5083 66.6667 75 65.175 75 63.3333V16.6667C75 14.825 73.5083 13.3333 71.6667 13.3333Z" fill="url(#paint0_radial_82_93)"/>
<path d="M11.6733 35.8333C11.6733 34.13 15.3717 28.3333 21.6667 28.3333C31.7883 28.3333 33.3217 41.6667 40 41.6667C45.115 41.6667 46.6117 38.3333 47.5 38.3333C47.92 38.3333 48.3333 38.575 48.3333 38.92C48.3333 40.3783 44.125 46.6667 38.3333 46.6667C28.3383 46.6667 28.185 33.3333 20 33.3333C15.6133 33.3333 13.605 36.6667 12.5 36.6667C11.7717 36.6667 11.6733 36.2 11.6733 35.8333Z" fill="white"/>
<path d="M72.0049 7.71334L66.1633 3.93334C65.8016 3.7 65.3199 3.80334 65.0866 4.16334L48.7466 29.4117L55.8966 34.0383L72.2366 8.79C72.4682 8.43 72.3649 7.94834 72.0049 7.71334Z" fill="url(#paint1_linear_82_93)"/>
<path d="M47.4732 38.4183L48.7449 29.4117L55.8949 34.0383L48.2049 38.89C47.8582 39.11 47.4149 38.8233 47.4732 38.4183Z" fill="#CCCCCC"/>
<path d="M47.7301 36.5933L47.4717 38.4183C47.4151 38.8233 47.8584 39.11 48.2034 38.8917L49.7617 37.9083L47.7301 36.5933Z" fill="#232323"/>
<defs>
<radialGradient id="paint0_radial_82_93" cx="0" cy="0" r="1" gradientUnits="userSpaceOnUse" gradientTransform="translate(87.5267 124.288) scale(138.007 138.007)">
<stop offset="0.339" stop-color="#23D9D6"/>
<stop offset="0.425" stop-color="#22C7DA"/>
<stop offset="0.599" stop-color="#1E97E6"/>
<stop offset="0.843" stop-color="#194BF8"/>
<stop offset="0.883" stop-color="#183EFB"/>
</radialGradient>
<linearGradient id="paint1_linear_82_93" x1="70.1116" y1="5.12" x2="53.4849" y2="29.2817" gradientUnits="userSpaceOnUse">
<stop stop-color="#4A4A4A"/>
<stop offset="1" stop-color="#303030"/>
</linearGradient>
</defs>
</svg>
