<svg width="80" height="80" viewBox="0 0 80 80" fill="none" xmlns="http://www.w3.org/2000/svg">
<g clip-path="url(#clip0_82_120)">
<path d="M17.3759 16.624C19.6159 18.4427 20.4532 18.304 24.6612 18.0213L64.3039 15.6427C65.1466 15.6427 64.4479 14.8053 64.1652 14.6667L57.5786 9.904C56.3199 8.92267 54.6399 7.80267 51.4186 8.08533L13.0292 10.8853C11.6319 11.024 11.3492 11.7227 11.9092 12.2827L17.3759 16.624ZM19.7546 25.8613V67.5733C19.7546 69.8133 20.8746 70.656 23.3972 70.5173L66.9706 67.9947C69.4879 67.856 69.7706 66.3147 69.7706 64.496V23.0613C69.7706 21.248 69.0719 20.2613 67.5306 20.4L21.9946 23.0613C20.3146 23.2 19.7546 24.0427 19.7546 25.8613ZM62.7679 28.1013C63.0452 29.36 62.7679 30.6187 61.5039 30.7627L59.4026 31.1787V61.9733C57.5839 62.9547 55.8986 63.52 54.4959 63.52C52.2559 63.52 51.6959 62.816 50.0159 60.7147L36.2826 39.1573V60.016L40.6292 60.9973C40.6292 60.9973 40.6292 63.5147 37.1252 63.5147L27.4612 64.0747C27.1786 63.5147 27.4612 62.1173 28.4426 61.8347L30.9599 61.1413V33.5573L27.4666 33.28C27.1839 32.0213 27.8826 30.2027 29.8452 30.0587L40.2132 29.3653L54.5066 51.2V31.8827L50.8639 31.4613C50.5812 29.92 51.7012 28.8 53.1039 28.6613L62.7732 28.1013H62.7679ZM9.80789 7.104L49.7386 4.16533C54.6399 3.73867 55.8986 4.02667 58.9812 6.26667L71.7279 15.2267C73.8346 16.7627 74.5332 17.184 74.5332 18.864V67.9947C74.5332 71.0773 73.4132 72.9013 69.4879 73.1733L23.1199 75.9733C20.1759 76.1173 18.7732 75.696 17.2319 73.7333L7.84522 61.5573C6.16522 59.3173 5.46655 57.6373 5.46655 55.6747V12C5.46655 9.48267 6.58655 7.38133 9.80789 7.104Z" fill="black"/>
</g>
<defs>
<clipPath id="clip0_82_120">
<rect width="80" height="80" fill="white"/>
</clipPath>
</defs>
</svg>
