<svg width="80" height="80" viewBox="0 0 80 80" fill="none" xmlns="http://www.w3.org/2000/svg">
<g clip-path="url(#clip0_82_56)">
<path d="M66.7188 0H13.2812C5.94622 0 0 6.08893 0 13.6V66.272C0 73.7831 5.94622 79.872 13.2812 79.872H66.7188C74.0538 79.872 80 73.7831 80 66.272V13.6C80 6.08893 74.0538 0 66.7188 0Z" fill="#001E36"/>
<path d="M18.0137 56.0112V20.895C18.0137 20.639 18.1212 20.5104 18.3359 20.5104L18.6755 20.5094L19.2562 20.503L20.063 20.4867L22.7662 20.4282L25.6646 20.3731C26.684 20.3552 27.6946 20.3456 28.6965 20.3456C31.4152 20.3456 33.7049 20.6938 35.5659 21.3898C37.2445 21.9712 38.7754 22.9286 40.0471 24.1923C41.1252 25.2878 41.9583 26.6097 42.489 28.0669C42.991 29.4849 43.2454 30.9823 43.2405 32.4906C43.2405 35.4221 42.5784 37.84 41.2546 39.7446C39.9599 41.6028 38.1539 43.0238 36.0671 43.8266L35.888 43.8938C33.709 44.7261 31.2959 45.0269 28.6493 45.0458L28.238 45.047L27.6277 45.0438L27.3199 45.0394L26.9768 45.031L26.7699 45.0227L26.6443 45.016L26.3352 45.0045L25.9574 44.9965L25.3887 44.9923L25.2621 44.992V55.9562C25.2715 56.0234 25.2655 56.0919 25.2446 56.1563C25.2236 56.2207 25.1883 56.2793 25.1414 56.3273C25.0945 56.3753 25.0374 56.4114 24.9744 56.4329C24.9115 56.4544 24.8446 56.4605 24.779 56.4509H18.3896C18.1387 56.4509 18.0137 56.305 18.0137 56.0112ZM25.2624 27.105V38.5584C25.6907 38.5938 26.1202 38.6121 26.5499 38.6134H28.3212C29.5423 38.6092 30.7564 38.4231 31.9252 38.0608L32.1584 37.9862C33.2217 37.6628 34.1718 37.0332 34.8955 36.1725C35.568 35.3603 35.9165 34.2413 35.9405 32.815L35.9421 32.6554C35.9702 31.5923 35.7002 30.5434 35.1637 29.633C34.5998 28.7525 33.7847 28.0713 32.8293 27.6819C31.5818 27.1854 30.2492 26.9519 28.9115 26.9952L28.2309 26.9971L27.8015 27.001L27.3918 27.0064L26.8137 27.0179L26.3918 27.0301L26.1727 27.0384L25.8799 27.0525L25.6305 27.0682L25.4884 27.0797L25.3655 27.0918L25.3115 27.0982L25.2624 27.105ZM63.9905 36.4758C63.0544 35.9832 62.0613 35.6131 61.0349 35.3744L60.7974 35.3219C59.6682 35.0566 58.5154 34.9104 57.3571 34.8858L57.0677 34.8822C56.3887 34.8634 55.7106 34.9467 55.0552 35.1296C54.638 35.2246 54.2671 35.4679 54.0084 35.8163C53.8335 36.0951 53.7404 36.4194 53.7402 36.7507C53.75 37.072 53.8632 37.381 54.0621 37.6298C54.3469 37.9709 54.6894 38.2567 55.073 38.4736L55.1893 38.5366C55.9545 38.9585 56.7429 39.3346 57.5505 39.663C59.3517 40.2805 61.0726 41.1201 62.6755 42.1635C63.7677 42.8693 64.6714 43.8419 65.3055 44.9939C65.8387 46.0846 66.1057 47.2913 66.0837 48.5107C66.1158 50.1212 65.6663 51.7033 64.7955 53.0448C63.8633 54.4064 62.5686 55.4649 61.0655 56.0944C59.4915 56.8029 57.5584 57.1686 55.2665 57.1926L55.0284 57.1939C53.6076 57.2086 52.1888 57.0813 50.7921 56.8138L50.4934 56.7542C49.3174 56.5334 48.1728 56.1642 47.0855 55.655C46.9763 55.5973 46.8839 55.5108 46.818 55.4046C46.752 55.2983 46.7147 55.1761 46.7099 55.0502V49.0605C46.7035 49.0023 46.7126 48.9435 46.7363 48.8902C46.7599 48.837 46.7973 48.7913 46.8443 48.7581C46.8904 48.7314 46.9433 48.7198 46.996 48.7247C47.0487 48.7296 47.0987 48.7508 47.1393 48.7856C48.4232 49.5609 49.8174 50.1264 51.2715 50.4618C52.5532 50.7908 53.868 50.9661 55.1893 50.984C56.4412 50.984 57.3624 50.8189 57.953 50.4893C58.2197 50.3643 58.4453 50.1628 58.6025 49.9092C58.7597 49.6556 58.8417 49.3608 58.8387 49.0605C58.8387 48.585 58.5702 48.1267 58.0337 47.6867C57.8087 47.5024 57.4859 47.3018 57.0659 47.0851L56.8649 46.984L56.6505 46.8806L56.538 46.8282L56.3024 46.7213C56.2615 46.703 56.2206 46.6849 56.1796 46.6669L55.9234 46.5568L55.7899 46.5008L55.513 46.3872L55.3693 46.3296L55.0715 46.2122L54.7599 46.0928C53.0748 45.4922 51.477 44.6603 50.0102 43.6198C48.9612 42.8727 48.0975 41.8847 47.488 40.7347C46.9603 39.6518 46.6935 38.4553 46.7099 37.2451C46.7069 35.7911 47.0969 34.3646 47.8368 33.1235C48.6805 31.7571 49.8918 30.6691 51.3252 29.9914C52.8993 29.1859 54.8668 28.7827 57.2284 28.7821C58.6115 28.7707 59.9933 28.8718 61.3609 29.0845C62.3511 29.2131 63.3192 29.4812 64.2377 29.8813C64.3855 29.9248 64.5046 30.0365 64.5596 30.1837C64.5962 30.3178 64.614 30.4563 64.6134 30.5958V36.1462C64.6212 36.2774 64.5596 36.4032 64.4524 36.4758C64.3807 36.5124 64.3016 36.5314 64.2215 36.5314C64.1414 36.5314 64.0623 36.5124 63.9905 36.4758Z" fill="#31A8FF"/>
</g>
<defs>
<clipPath id="clip0_82_56">
<rect width="80" height="80" fill="white"/>
</clipPath>
</defs>
</svg>
