<svg width="80" height="80" viewBox="0 0 80 80" fill="none" xmlns="http://www.w3.org/2000/svg">
<g clip-path="url(#clip0_82_102)">
<path d="M72.1875 0H7.8125C3.49778 0 0 3.49778 0 7.8125V72.1875C0 76.5022 3.49778 80 7.8125 80H72.1875C76.5022 80 80 76.5022 80 72.1875V7.8125C80 3.49778 76.5022 0 72.1875 0Z" fill="url(#paint0_linear_82_102)"/>
<path d="M65.85 10.4H48.95C46.8789 10.4 45.2 12.0789 45.2 14.15V41.65C45.2 43.7211 46.8789 45.4 48.95 45.4H65.85C67.921 45.4 69.6 43.7211 69.6 41.65V14.15C69.6 12.0789 67.921 10.4 65.85 10.4Z" fill="white"/>
<path d="M31.0499 10.4H14.1499C12.0788 10.4 10.3999 12.0789 10.3999 14.15V61.65C10.3999 63.7211 12.0788 65.4 14.1499 65.4H31.0499C33.121 65.4 34.7999 63.7211 34.7999 61.65V14.15C34.7999 12.0789 33.121 10.4 31.0499 10.4Z" fill="white"/>
</g>
<defs>
<linearGradient id="paint0_linear_82_102" x1="40" y1="0" x2="40" y2="80" gradientUnits="userSpaceOnUse">
<stop stop-color="#0091E6"/>
<stop offset="1" stop-color="#0079BF"/>
</linearGradient>
<clipPath id="clip0_82_102">
<rect width="80" height="80" fill="white"/>
</clipPath>
</defs>
</svg>
