<svg width="80" height="80" viewBox="0 0 80 80" fill="none" xmlns="http://www.w3.org/2000/svg">
<g clip-path="url(#clip0_82_24)">
<path d="M40 80C62.0914 80 80 62.0914 80 40C80 17.9086 62.0914 0 40 0C17.9086 0 0 17.9086 0 40C0 62.0914 17.9086 80 40 80Z" fill="#4353FF"/>
<path d="M51.7501 35.25L48.1251 46.675C48.1251 45.8 45.6251 26.85 45.6251 26.85C39.8751 26.85 36.8251 30.925 35.2251 35.25L30.8001 46.7C30.8001 45.875 30.1751 35.35 30.1751 35.35C29.9617 33.0716 28.92 30.9505 27.2475 29.3886C25.575 27.8267 23.3878 26.9323 21.1001 26.875L25.8001 55.575C31.8001 55.575 35.0501 51.5 36.7251 47.175L40.4751 37.425C40.4751 37.825 42.9751 55.575 42.9751 55.575C45.4286 55.5718 47.8173 54.7875 49.7951 53.3356C51.7729 51.8838 53.2369 49.8398 53.9751 47.5L62.4751 26.85C56.4751 26.85 53.3251 30.925 51.7251 35.25H51.7501Z" fill="white"/>
</g>
<defs>
<clipPath id="clip0_82_24">
<rect width="80" height="80" fill="white"/>
</clipPath>
</defs>
</svg>
